<?xml version="1.0" encoding="UTF-8" standalone="no"?>
<!DOCTYPE svg PUBLIC "-//W3C//DTD SVG 1.1//EN"
 "http://www.w3.org/Graphics/SVG/1.1/DTD/svg11.dtd">
<!-- Generated by graphviz version 2.40.1 (20161225.0304)
 -->
<!-- Title: G Pages: 1 -->
<svg width="975pt" height="361pt"
 viewBox="0.00 0.00 975.00 360.60" xmlns="http://www.w3.org/2000/svg" xmlns:xlink="http://www.w3.org/1999/xlink">
<g id="graph0" class="graph" transform="scale(1 1) rotate(0) translate(4 356.6)">
<title>G</title>
<polygon fill="#ffffff" stroke="transparent" points="-4,4 -4,-356.6 971,-356.6 971,4 -4,4"/>
<g id="clust1" class="cluster">
<title>cluster_core</title>
<polygon fill="none" stroke="#ff0000" points="8,-16 8,-311.8 250,-311.8 250,-16 8,-16"/>
<text text-anchor="middle" x="129" y="-295.2" font-family="Times,serif" font-size="14.00" fill="#000000">core</text>
</g>
<g id="clust2" class="cluster">
<title>cluster_train</title>
<polygon fill="none" stroke="#00ff00" points="278,-16 278,-311.8 372,-311.8 372,-16 278,-16"/>
<text text-anchor="middle" x="325" y="-295.2" font-family="Times,serif" font-size="14.00" fill="#000000">training</text>
</g>
<g id="clust3" class="cluster">
<title>cluster_app</title>
<polygon fill="none" stroke="#0000ff" points="415,-8 415,-344.6 959,-344.6 959,-8 415,-8"/>
<text text-anchor="middle" x="687" y="-328" font-family="Times,serif" font-size="14.00" fill="#000000">applications</text>
</g>
<g id="clust5" class="cluster">
<title>cluster_vision</title>
<polygon fill="none" stroke="#0000ff" points="807,-16 807,-311.8 951,-311.8 951,-16 807,-16"/>
<text text-anchor="middle" x="879" y="-295.2" font-family="Times,serif" font-size="14.00" fill="#000000">vision</text>
</g>
<g id="clust6" class="cluster">
<title>cluster_text</title>
<polygon fill="none" stroke="#0000ff" points="655,-89 655,-311.8 799,-311.8 799,-89 655,-89"/>
<text text-anchor="middle" x="727" y="-295.2" font-family="Times,serif" font-size="14.00" fill="#000000">text</text>
</g>
<g id="clust7" class="cluster">
<title>cluster_tabular</title>
<polygon fill="none" stroke="#0000ff" points="487,-162 487,-311.8 647,-311.8 647,-162 487,-162"/>
<text text-anchor="middle" x="567" y="-295.2" font-family="Times,serif" font-size="14.00" fill="#000000">tabular</text>
</g>
<!-- core -->
<g id="node1" class="node">
<title>core</title>
<polygon fill="none" stroke="#000000" points="146,-279 92,-279 92,-243 146,-243 146,-279"/>
<text text-anchor="middle" x="119" y="-256.8" font-family="Times,serif" font-size="14.00" fill="#000000">core</text>
</g>
<!-- torch_core -->
<g id="node2" class="node">
<title>torch_core</title>
<polygon fill="none" stroke="#000000" points="156.8557,-206 81.1443,-206 81.1443,-170 156.8557,-170 156.8557,-206"/>
<text text-anchor="middle" x="119" y="-183.8" font-family="Times,serif" font-size="14.00" fill="#000000">torch_core</text>
</g>
<!-- core&#45;&gt;torch_core -->
<g id="edge1" class="edge">
<title>core&#45;&gt;torch_core</title>
<path fill="none" stroke="#000000" d="M119,-242.9551C119,-234.8828 119,-225.1764 119,-216.1817"/>
<polygon fill="#000000" stroke="#000000" points="122.5001,-216.0903 119,-206.0904 115.5001,-216.0904 122.5001,-216.0903"/>
</g>
<!-- callback -->
<g id="node7" class="node">
<title>callback</title>
<polygon fill="none" stroke="#000000" points="356.1406,-279 293.8594,-279 293.8594,-243 356.1406,-243 356.1406,-279"/>
<text text-anchor="middle" x="325" y="-256.8" font-family="Times,serif" font-size="14.00" fill="#000000">callback</text>
</g>
<!-- core&#45;&gt;callback -->
<g id="edge17" class="edge">
<title>core&#45;&gt;callback</title>
<path fill="none" stroke="#000000" d="M249.9983,-261C256.1518,-261 262.161,-261 267.9286,-261"/>
<polygon fill="#000000" stroke="#000000" points="268.0016,-264.5001 278.0016,-261 268.0016,-257.5001 268.0016,-264.5001"/>
<text text-anchor="middle" x="219.8401" y="-268.2" font-family="Times,serif" font-size="14.00" fill="#000000"> &#160;&#160;&#160;&#160;&#160;&#160;&#160;&#160;&#160;&#160;&#160;&#160;&#160;&#160;&#160;&#160;&#160;&#160;&#160;&#160;&#160;&#160;&#160;&#160;&#160;&#160;&#160;&#160;&#160;&#160;&#160;&#160;&#160;&#160;&#160;&#160;</text>
</g>
<!-- metrics -->
<g id="node3" class="node">
<title>metrics</title>
<polygon fill="none" stroke="#000000" points="73.7066,-133 16.2934,-133 16.2934,-97 73.7066,-97 73.7066,-133"/>
<text text-anchor="middle" x="45" y="-110.8" font-family="Times,serif" font-size="14.00" fill="#000000">metrics</text>
</g>
<!-- torch_core&#45;&gt;metrics -->
<g id="edge2" class="edge">
<title>torch_core&#45;&gt;metrics</title>
<path fill="none" stroke="#000000" d="M100.7079,-169.9551C91.6356,-161.0054 80.5271,-150.047 70.6232,-140.2769"/>
<polygon fill="#000000" stroke="#000000" points="72.9152,-137.6215 63.3382,-133.0904 67.9992,-142.6049 72.9152,-137.6215"/>
</g>
<!-- layers -->
<g id="node4" class="node">
<title>layers</title>
<polygon fill="none" stroke="#000000" points="146,-133 92,-133 92,-97 146,-97 146,-133"/>
<text text-anchor="middle" x="119" y="-110.8" font-family="Times,serif" font-size="14.00" fill="#000000">layers</text>
</g>
<!-- torch_core&#45;&gt;layers -->
<g id="edge3" class="edge">
<title>torch_core&#45;&gt;layers</title>
<path fill="none" stroke="#000000" d="M119,-169.9551C119,-161.8828 119,-152.1764 119,-143.1817"/>
<polygon fill="#000000" stroke="#000000" points="122.5001,-143.0903 119,-133.0904 115.5001,-143.0904 122.5001,-143.0903"/>
</g>
<!-- basic_data -->
<g id="node5" class="node">
<title>basic_data</title>
<polygon fill="none" stroke="#000000" points="241.9262,-133 164.0738,-133 164.0738,-97 241.9262,-97 241.9262,-133"/>
<text text-anchor="middle" x="203" y="-110.8" font-family="Times,serif" font-size="14.00" fill="#000000">basic_data</text>
</g>
<!-- torch_core&#45;&gt;data_block -->
<g id="edge4" class="edge">
<title>torch_core&#45;&gt;data_block</title>
<path fill="none" stroke="#000000" d="M139.7641,-169.9551C150.2642,-160.8299 163.1674,-149.6165 174.5739,-139.7036"/>
<polygon fill="#000000" stroke="#000000" points="176.9315,-142.2918 182.1837,-133.0904 172.3398,-137.0082 176.9315,-142.2918"/>
</g>
<!-- data_block -->
<g id="node6" class="node">
<title>data_block</title>
<polygon fill="none" stroke="#000000" points="240.5842,-60 165.4158,-60 165.4158,-24 240.5842,-24 240.5842,-60"/>
<text text-anchor="middle" x="203" y="-37.8" font-family="Times,serif" font-size="14.00" fill="#000000">data_block</text>
</g>
<!-- basic_data&#45;&gt;data_block -->
<g id="edge5" class="edge">
<title>basic_data&#45;&gt;data_block</title>
<path fill="none" stroke="#000000" d="M203,-96.9551C203,-88.8828 203,-79.1764 203,-70.1817"/>
<polygon fill="#000000" stroke="#000000" points="206.5001,-70.0903 203,-60.0904 199.5001,-70.0904 206.5001,-70.0903"/>
</g>
<!-- basic_train -->
<g id="node8" class="node">
<title>basic_train</title>
<polygon fill="none" stroke="#000000" points="363.9219,-206 286.0781,-206 286.0781,-170 363.9219,-170 363.9219,-206"/>
<text text-anchor="middle" x="325" y="-183.8" font-family="Times,serif" font-size="14.00" fill="#000000">basic_train</text>
</g>
<!-- callback&#45;&gt;basic_train -->
<g id="edge6" class="edge">
<title>callback&#45;&gt;basic_train</title>
<path fill="none" stroke="#000000" d="M325,-242.9551C325,-234.8828 325,-225.1764 325,-216.1817"/>
<polygon fill="#000000" stroke="#000000" points="328.5001,-216.0903 325,-206.0904 321.5001,-216.0904 328.5001,-216.0903"/>
</g>
<!-- collab -->
<g id="node11" class="node">
<title>collab</title>
<polygon fill="none" stroke="#000000" points="477,-279 423,-279 423,-243 477,-243 477,-279"/>
<text text-anchor="middle" x="450" y="-256.8" font-family="Times,serif" font-size="14.00" fill="#000000">collab</text>
</g>
<!-- callback&#45;&gt;collab -->
<g id="edge18" class="edge">
<title>callback&#45;&gt;collab</title>
<path fill="none" stroke="#000000" d="M371.9975,-261C385.4902,-261 400.0118,-261 412.8245,-261"/>
<polygon fill="#000000" stroke="#000000" points="405.0002,-264.5005 415,-261 404.9998,-257.5005 405.0002,-264.5005"/>
<text text-anchor="middle" x="389.6599" y="-268.2" font-family="Times,serif" font-size="14.00" fill="#000000"> &#160;&#160;&#160;&#160;&#160;&#160;&#160;&#160;&#160;&#160;&#160;&#160;&#160;</text>
</g>
<!-- callbacks -->
<g id="node9" class="node">
<title>callbacks</title>
<polygon fill="none" stroke="#000000" points="359.0843,-133 290.9157,-133 290.9157,-97 359.0843,-97 359.0843,-133"/>
<text text-anchor="middle" x="325" y="-110.8" font-family="Times,serif" font-size="14.00" fill="#000000">callbacks</text>
</g>
<!-- basic_train&#45;&gt;callbacks -->
<g id="edge7" class="edge">
<title>basic_train&#45;&gt;callbacks</title>
<path fill="none" stroke="#000000" d="M325,-169.9551C325,-161.8828 325,-152.1764 325,-143.1817"/>
<polygon fill="#000000" stroke="#000000" points="328.5001,-143.0903 325,-133.0904 321.5001,-143.0904 328.5001,-143.0903"/>
</g>
<!-- train -->
<g id="node10" class="node">
<title>train</title>
<polygon fill="none" stroke="#000000" points="352,-60 298,-60 298,-24 352,-24 352,-60"/>
<text text-anchor="middle" x="325" y="-37.8" font-family="Times,serif" font-size="14.00" fill="#000000">train</text>
</g>
<!-- callbacks&#45;&gt;train -->
<g id="edge8" class="edge">
<title>callbacks&#45;&gt;train</title>
<path fill="none" stroke="#000000" d="M325,-96.9551C325,-88.8828 325,-79.1764 325,-70.1817"/>
<polygon fill="#000000" stroke="#000000" points="328.5001,-70.0903 325,-60.0904 321.5001,-70.0904 328.5001,-70.0903"/>
</g>
<!-- vdata -->
<g id="node12" class="node">
<title>vdata</title>
<polygon fill="none" stroke="#000000" points="869,-133 815,-133 815,-97 869,-97 869,-133"/>
<text text-anchor="middle" x="842" y="-110.8" font-family="Times,serif" font-size="14.00" fill="#000000">data</text>
</g>
<!-- vlearn -->
<g id="node14" class="node">
<title>vlearn</title>
<polygon fill="none" stroke="#000000" points="905,-60 851,-60 851,-24 905,-24 905,-60"/>
<text text-anchor="middle" x="878" y="-37.8" font-family="Times,serif" font-size="14.00" fill="#000000">learn</text>
</g>
<!-- vdata&#45;&gt;vlearn -->
<g id="edge11" class="edge">
<title>vdata&#45;&gt;vlearn</title>
<path fill="none" stroke="#000000" d="M850.8989,-96.9551C855.0095,-88.6196 859.9795,-78.5416 864.5349,-69.3042"/>
<polygon fill="#000000" stroke="#000000" points="867.7948,-70.6071 869.0787,-60.0904 861.5167,-67.511 867.7948,-70.6071"/>
</g>
<!-- vtransform -->
<g id="node13" class="node">
<title>vtransform</title>
<polygon fill="none" stroke="#000000" points="885.4235,-206 814.5765,-206 814.5765,-170 885.4235,-170 885.4235,-206"/>
<text text-anchor="middle" x="850" y="-183.8" font-family="Times,serif" font-size="14.00" fill="#000000">transform</text>
</g>
<!-- vtransform&#45;&gt;vdata -->
<g id="edge10" class="edge">
<title>vtransform&#45;&gt;vdata</title>
<path fill="none" stroke="#000000" d="M848.0225,-169.9551C847.1378,-161.8828 846.0741,-152.1764 845.0884,-143.1817"/>
<polygon fill="#000000" stroke="#000000" points="848.5511,-142.6495 843.9825,-133.0904 841.5928,-143.4122 848.5511,-142.6495"/>
</g>
<!-- vmodel -->
<g id="node15" class="node">
<title>vmodel</title>
<polygon fill="none" stroke="#000000" points="943.4421,-133 886.5579,-133 886.5579,-97 943.4421,-97 943.4421,-133"/>
<text text-anchor="middle" x="915" y="-110.8" font-family="Times,serif" font-size="14.00" fill="#000000">models</text>
</g>
<!-- vmodel&#45;&gt;vlearn -->
<g id="edge12" class="edge">
<title>vmodel&#45;&gt;vlearn</title>
<path fill="none" stroke="#000000" d="M905.8539,-96.9551C901.5846,-88.5319 896.4135,-78.3292 891.6914,-69.0128"/>
<polygon fill="#000000" stroke="#000000" points="894.812,-67.4277 887.1691,-60.0904 888.5682,-70.5924 894.812,-67.4277"/>
</g>
<!-- image -->
<g id="node16" class="node">
<title>image</title>
<polygon fill="none" stroke="#000000" points="877,-279 823,-279 823,-243 877,-243 877,-279"/>
<text text-anchor="middle" x="850" y="-256.8" font-family="Times,serif" font-size="14.00" fill="#000000">image</text>
</g>
<!-- image&#45;&gt;vtransform -->
<g id="edge9" class="edge">
<title>image&#45;&gt;vtransform</title>
<path fill="none" stroke="#000000" d="M850,-242.9551C850,-234.8828 850,-225.1764 850,-216.1817"/>
<polygon fill="#000000" stroke="#000000" points="853.5001,-216.0903 850,-206.0904 846.5001,-216.0904 853.5001,-216.0903"/>
</g>
<!-- tdata -->
<g id="node17" class="node">
<title>tdata</title>
<polygon fill="none" stroke="#000000" points="791,-206 737,-206 737,-170 791,-170 791,-206"/>
<text text-anchor="middle" x="764" y="-183.8" font-family="Times,serif" font-size="14.00" fill="#000000">data</text>
</g>
<!-- tlearn -->
<g id="node19" class="node">
<title>tlearn</title>
<polygon fill="none" stroke="#000000" points="754,-133 700,-133 700,-97 754,-97 754,-133"/>
<text text-anchor="middle" x="727" y="-110.8" font-family="Times,serif" font-size="14.00" fill="#000000">learn</text>
</g>
<!-- tdata&#45;&gt;tlearn -->
<g id="edge14" class="edge">
<title>tdata&#45;&gt;tlearn</title>
<path fill="none" stroke="#000000" d="M754.8539,-169.9551C750.5846,-161.5319 745.4135,-151.3292 740.6914,-142.0128"/>
<polygon fill="#000000" stroke="#000000" points="743.812,-140.4277 736.1691,-133.0904 737.5682,-143.5924 743.812,-140.4277"/>
</g>
<!-- ttransform -->
<g id="node18" class="node">
<title>ttransform</title>
<polygon fill="none" stroke="#000000" points="791.4235,-279 720.5765,-279 720.5765,-243 791.4235,-243 791.4235,-279"/>
<text text-anchor="middle" x="756" y="-256.8" font-family="Times,serif" font-size="14.00" fill="#000000">transform</text>
</g>
<!-- ttransform&#45;&gt;tdata -->
<g id="edge13" class="edge">
<title>ttransform&#45;&gt;tdata</title>
<path fill="none" stroke="#000000" d="M757.9775,-242.9551C758.8622,-234.8828 759.9259,-225.1764 760.9116,-216.1817"/>
<polygon fill="#000000" stroke="#000000" points="764.4072,-216.4122 762.0175,-206.0904 757.4489,-215.6495 764.4072,-216.4122"/>
</g>
<!-- tmodel -->
<g id="node20" class="node">
<title>tmodel</title>
<polygon fill="none" stroke="#000000" points="719.4421,-206 662.5579,-206 662.5579,-170 719.4421,-170 719.4421,-206"/>
<text text-anchor="middle" x="691" y="-183.8" font-family="Times,serif" font-size="14.00" fill="#000000">models</text>
</g>
<!-- tmodel&#45;&gt;tlearn -->
<g id="edge15" class="edge">
<title>tmodel&#45;&gt;tlearn</title>
<path fill="none" stroke="#000000" d="M699.8989,-169.9551C704.0095,-161.6196 708.9795,-151.5416 713.5349,-142.3042"/>
<polygon fill="#000000" stroke="#000000" points="716.7948,-143.6071 718.0787,-133.0904 710.5167,-140.511 716.7948,-143.6071"/>
</g>
<!-- udata -->
<g id="node21" class="node">
<title>udata</title>
<polygon fill="none" stroke="#000000" points="631,-206 577,-206 577,-170 631,-170 631,-206"/>
<text text-anchor="middle" x="604" y="-183.8" font-family="Times,serif" font-size="14.00" fill="#000000">data</text>
</g>
<!-- utransform -->
<g id="node22" class="node">
<title>utransform</title>
<polygon fill="none" stroke="#000000" points="639.4235,-279 568.5765,-279 568.5765,-243 639.4235,-243 639.4235,-279"/>
<text text-anchor="middle" x="604" y="-256.8" font-family="Times,serif" font-size="14.00" fill="#000000">transform</text>
</g>
<!-- utransform&#45;&gt;udata -->
<g id="edge16" class="edge">
<title>utransform&#45;&gt;udata</title>
<path fill="none" stroke="#000000" d="M604,-242.9551C604,-234.8828 604,-225.1764 604,-216.1817"/>
<polygon fill="#000000" stroke="#000000" points="607.5001,-216.0903 604,-206.0904 600.5001,-216.0904 607.5001,-216.0903"/>
</g>
<!-- umodel -->
<g id="node23" class="node">
<title>umodel</title>
<polygon fill="none" stroke="#000000" points="551.4421,-279 494.5579,-279 494.5579,-243 551.4421,-243 551.4421,-279"/>
<text text-anchor="middle" x="523" y="-256.8" font-family="Times,serif" font-size="14.00" fill="#000000">models</text>
</g>
</g>
</svg>